<?xml version="1.0" encoding="utf-8"?>
<!-- Generator: Adobe Illustrator 25.0.0, SVG Export Plug-In . SVG Version: 6.00 Build 0)  -->
<svg version="1.1" xmlns="http://www.w3.org/2000/svg" xmlns:xlink="http://www.w3.org/1999/xlink" x="0px" y="0px" width="1000px"
	 height="650px" viewBox="0 0 1000 650" style="enable-background:new 0 0 1000 650;" xml:space="preserve">
<style type="text/css">
	.st0{fill:#FFFFFF;}
	.st1{fill:none;stroke:#E74C3C;stroke-width:3;stroke-linecap:round;stroke-linejoin:round;}
	.st2{fill:none;stroke:#E74C3C;stroke-width:3;stroke-linecap:round;stroke-linejoin:round;stroke-dasharray:5.0364,7.051;}
	.st3{fill:none;stroke:#E74C3C;stroke-width:3;stroke-linecap:round;stroke-linejoin:round;stroke-dasharray:5.0367,7.0514;}
	.st4{fill:#E74C3C;}
	.st5{fill:none;stroke:#E74C3C;stroke-width:2.25;stroke-linecap:round;stroke-linejoin:round;stroke-miterlimit:10;}
	.st6{fill:none;stroke:#F03823;stroke-width:2.5375;stroke-linecap:round;stroke-linejoin:round;}
	.st7{fill:none;stroke:#F03823;stroke-width:2.5375;stroke-linecap:round;stroke-linejoin:round;stroke-dasharray:4.2595,5.9633;}
	.st8{fill:none;stroke:#F03823;stroke-width:2.5375;stroke-linecap:round;stroke-linejoin:round;stroke-dasharray:4.2598,5.9637;}
	.st9{fill:none;stroke:#F03823;stroke-width:2.5375;stroke-linecap:round;stroke-linejoin:round;stroke-dasharray:4.2537,5.9552;}
	.st10{fill:none;stroke:#F03823;stroke-width:2.5375;stroke-linecap:round;stroke-linejoin:round;stroke-dasharray:4.3365,6.0712;}
	.st11{fill:none;}
	.st12{fill:none;stroke:#F03823;stroke-width:2.5375;stroke-linecap:round;stroke-linejoin:round;stroke-dasharray:4.198,5.8772;}
	.st13{opacity:0.96;}
	.st14{fill:none;stroke:#E74C3C;stroke-width:2;stroke-linecap:round;stroke-linejoin:round;stroke-miterlimit:10;}
	.st15{fill:none;stroke:#E74C3C;stroke-width:3;stroke-linecap:round;stroke-linejoin:round;stroke-dasharray:5.0494,7.0691;}
	.st16{fill:none;stroke:#E74C3C;stroke-width:3;stroke-linecap:round;stroke-linejoin:round;stroke-dasharray:4.9417,6.9184;}
	.st17{fill:none;stroke:#E74C3C;stroke-width:3;stroke-linecap:round;stroke-linejoin:round;stroke-dasharray:4.9418,6.9186;}
	.st18{fill:none;stroke:#E74C3C;stroke-width:3;stroke-linecap:round;stroke-linejoin:round;stroke-dasharray:4.971,6.9594;}
	.st19{fill:none;stroke:#E74C3C;stroke-width:3;stroke-linecap:round;stroke-linejoin:round;stroke-dasharray:4.9818,6.9745;}
	.st20{fill:none;stroke:#E74C3C;stroke-width:3;stroke-linecap:round;stroke-linejoin:round;stroke-dasharray:4.9893,6.985;}
	.st21{fill:none;stroke:#E74C3C;stroke-width:3;stroke-linecap:round;stroke-linejoin:round;stroke-dasharray:4.9823,6.9752;}
	.st22{fill:none;stroke:#E74C3C;stroke-width:3;stroke-linecap:round;stroke-linejoin:round;stroke-dasharray:5.0015,7.002;}
	.st23{fill:none;stroke:#E74C3C;stroke-width:3;stroke-linecap:round;stroke-linejoin:round;stroke-dasharray:4.9704,6.9586;}
	.st24{fill:none;stroke:#E74C3C;stroke-width:3;stroke-linecap:round;stroke-linejoin:round;stroke-dasharray:4.974,6.9636;}
	.st25{fill:none;stroke:#E74C3C;stroke-width:3;stroke-linecap:round;stroke-linejoin:round;stroke-dasharray:4.9801,6.9721;}
	.st26{fill:none;stroke:#E74C3C;stroke-width:3;stroke-linecap:round;stroke-linejoin:round;stroke-dasharray:5.0131,7.0183;}
	.st27{fill:none;stroke:#E74C3C;stroke-width:3;stroke-linecap:round;stroke-linejoin:round;stroke-dasharray:5.0278,7.0389;}
	.st28{fill:none;stroke:#E74C3C;stroke-width:3;stroke-linecap:round;stroke-linejoin:round;stroke-dasharray:4.9915,6.9881;}
	.st29{fill:none;stroke:#E74C3C;stroke-width:3;stroke-linecap:round;stroke-linejoin:round;stroke-dasharray:4.999,6.9985;}
	.st30{fill:none;stroke:#E74C3C;stroke-width:3;stroke-linecap:round;stroke-linejoin:round;stroke-dasharray:4.9752,6.9653;}
	.st31{fill:none;stroke:#E74C3C;stroke-width:3;stroke-linecap:round;stroke-linejoin:round;stroke-dasharray:4.9649,6.9508;}
	.st32{fill:none;stroke:#E74C3C;stroke-width:3;stroke-linecap:round;stroke-linejoin:round;stroke-dasharray:4.9441,6.9218;}
	.st33{fill:none;stroke:#E74C3C;stroke-width:3;stroke-linecap:round;stroke-linejoin:round;stroke-dasharray:5.0359,7.0502;}
	.st34{fill:none;stroke:#E74C3C;stroke-width:3;stroke-linecap:round;stroke-linejoin:round;stroke-dasharray:5.0186,7.026;}
	.st35{fill:none;stroke:#E74C3C;stroke-width:3;stroke-linecap:round;stroke-linejoin:round;stroke-dasharray:4.973,6.9621;}
	.st36{fill:none;stroke:#E74C3C;stroke-width:3;stroke-linecap:round;stroke-linejoin:round;stroke-dasharray:5.0262,7.0367;}
	.st37{fill:none;stroke:#E74C3C;stroke-width:3;stroke-linecap:round;stroke-linejoin:round;stroke-dasharray:4.9606,6.9448;}
	.st38{fill:none;stroke:#E74C3C;stroke-width:3;stroke-linecap:round;stroke-linejoin:round;stroke-dasharray:5.0081,7.0113;}
	.st39{fill:none;stroke:#E74C3C;stroke-width:1.5;stroke-linecap:round;stroke-linejoin:round;stroke-miterlimit:10;}
	.st40{fill:none;stroke:#E74C3C;stroke-width:2.75;stroke-linecap:round;stroke-linejoin:round;stroke-miterlimit:10;}
	.st41{fill:none;stroke:#E74C3C;stroke-width:3;stroke-linecap:round;stroke-linejoin:round;stroke-miterlimit:10;}
	.st42{fill:none;stroke:#E74C3C;stroke-width:3.5;stroke-linecap:round;stroke-linejoin:round;stroke-miterlimit:10;}
</style>
<g id="FILL-BACKGROUND">
	<rect x="0" y="0" class="st0" width="1000" height="650"/>
</g>
<g id="N-DIMENSIONS">
	<g>
		<g>
			<g id="POLYLINE_3575_">
				<g>
					<g>
						<path class="st1" d="M727.149,301.648c-0.039-0.845-0.264-1.645-0.635-2.403"/>
						<path class="st2" d="M721.598,294.303c-0.867-0.573-1.786-1.112-2.718-1.622c-4.67-2.553-10.193-4.399-15.648-6.071
							c-11.668-3.577-24.143-5.961-36.541-8.108c-12.832-2.221-25.859-3.882-38.899-5.453c-12.596-1.516-25.342-2.716-38.051-3.719
							c-13.174-1.04-26.357-2.039-39.58-2.763c-13.709-0.751-27.418-1.391-41.149-1.932c-13.674-0.54-27.365-0.841-41.053-1.114
							c-13.609-0.273-27.223-0.301-40.836-0.372c-13.062-0.069-26.141,0.109-39.199,0.313c-13.053,0.204-26.097,0.546-39.135,0.988
							c-12.948,0.439-25.888,0.984-38.81,1.691c-13.035,0.715-26.06,1.509-39.051,2.533c-13.579,1.073-27.131,2.273-40.626,3.751
							c-12.823,1.402-25.61,3.01-38.249,5.033c-12.913,2.066-25.643,4.515-38.014,7.749c-5.577,1.458-11.112,3.229-16.151,5.395
							c-3.617,1.556-7.398,3.435-9.916,5.85"/>
						<path class="st1" d="M125.837,299.241c-0.383,0.775-0.606,1.592-0.588,2.407"/>
					</g>
				</g>
			</g>
			<g id="POLYLINE_3574_">
				<g>
					<g>
						<path class="st1" d="M125.249,301.648c-0.018,0.831,0.187,1.638,0.562,2.414"/>
						<path class="st3" d="M130.729,309.008c0.971,0.637,1.996,1.216,3.01,1.729c4.826,2.441,10.132,4.39,15.665,6.027
							c11.946,3.536,24.495,6.001,37.131,8.174c12.571,2.16,25.361,3.882,38.166,5.304c12.807,1.426,25.641,2.752,38.536,3.774
							c13.126,1.04,26.262,2.026,39.44,2.742c13.569,0.737,27.146,1.445,40.743,1.907c13.769,0.468,27.532,0.842,41.312,1.12
							c13.583,0.273,27.173,0.294,40.762,0.369c13.143,0.073,26.305-0.122,39.444-0.324c13.146-0.202,26.283-0.562,39.414-1.008
							c12.992-0.441,25.973-1.01,38.938-1.716c13.023-0.707,26.029-1.52,39.006-2.547c13.6-1.077,27.17-2.292,40.68-3.792
							c12.752-1.417,25.463-3.014,38.033-5.036c12.75-2.052,25.275-4.508,37.502-7.682c5.525-1.435,11.143-3.194,16.084-5.392
							c3.564-1.585,7.329-3.415,9.829-5.809"/>
						<path class="st1" d="M726.544,304.057c0.374-0.78,0.566-1.576,0.605-2.409"/>
					</g>
				</g>
			</g>
		</g>
		<g>
			<g>
				<g id="MTEXT_19_">
					<g>
						<path class="st4" d="M746.432,296.999c-0.088-0.087-0.131-0.196-0.131-0.33v-0.6c0-0.307,0.167-0.601,0.5-0.881l4.36-4.34
							c0.987-0.84,1.667-1.526,2.04-2.06s0.561-1.101,0.561-1.7c0-0.786-0.221-1.403-0.66-1.85c-0.44-0.447-1.08-0.67-1.92-0.67
							c-0.801,0-1.434,0.233-1.9,0.699c-0.467,0.467-0.754,1.094-0.859,1.88c-0.027,0.147-0.094,0.261-0.201,0.341
							c-0.106,0.08-0.213,0.12-0.319,0.12h-0.96c-0.12,0-0.221-0.04-0.301-0.12c-0.079-0.08-0.119-0.174-0.119-0.28
							c0.026-0.707,0.217-1.39,0.57-2.05c0.353-0.66,0.876-1.2,1.569-1.62s1.533-0.63,2.521-0.63c1.492,0,2.616,0.39,3.369,1.17
							c0.754,0.78,1.131,1.77,1.131,2.97c0,0.84-0.203,1.597-0.61,2.271c-0.407,0.673-1.044,1.383-1.91,2.13l-3.94,4h6.301
							c0.146,0,0.26,0.04,0.34,0.12c0.08,0.079,0.12,0.193,0.12,0.34v0.76c0,0.134-0.044,0.243-0.13,0.33
							c-0.087,0.087-0.197,0.13-0.33,0.13h-8.76C746.628,297.129,746.518,297.086,746.432,296.999z"/>
						<path class="st4" d="M759.711,296.999c-0.072-0.087-0.109-0.19-0.109-0.311l0.04-0.18l5-11.7h-6.601
							c-0.133,0-0.243-0.043-0.33-0.13c-0.086-0.086-0.129-0.196-0.129-0.33v-0.739c0-0.147,0.039-0.264,0.119-0.351
							s0.193-0.13,0.34-0.13h8.16c0.146,0,0.26,0.043,0.34,0.13s0.121,0.203,0.121,0.351v0.68c0,0.24-0.055,0.5-0.16,0.78
							l-4.94,11.56c-0.067,0.146-0.14,0.267-0.22,0.36c-0.08,0.093-0.193,0.14-0.34,0.14h-1
							C759.881,297.129,759.785,297.086,759.711,296.999z"/>
						<path class="st4" d="M768.411,286.609c-0.06-0.08-0.077-0.181-0.05-0.301l0.439-2.8c0.054-0.387,0.24-0.58,0.561-0.58h1.279
							c0.094,0,0.17,0.033,0.23,0.101c0.061,0.066,0.09,0.146,0.09,0.239c0,0.134-0.02,0.24-0.06,0.32l-1.04,2.7
							c-0.066,0.146-0.141,0.257-0.221,0.33s-0.199,0.109-0.359,0.109h-0.62C768.555,286.729,768.471,286.688,768.411,286.609z
							 M771.551,286.609c-0.06-0.08-0.076-0.181-0.05-0.301l0.44-2.8c0.053-0.387,0.24-0.58,0.56-0.58h1.28
							c0.094,0,0.17,0.033,0.23,0.101c0.06,0.066,0.09,0.146,0.09,0.239c0,0.134-0.021,0.24-0.061,0.32l-1.04,2.7
							c-0.067,0.146-0.14,0.257-0.22,0.33s-0.2,0.109-0.359,0.109h-0.621C771.694,286.729,771.611,286.688,771.551,286.609z"/>
						<path class="st4" d="M781.421,301.159c-0.08-0.087-0.12-0.197-0.12-0.33v-21.16c0-0.133,0.04-0.243,0.12-0.33
							s0.187-0.13,0.319-0.13h0.74c0.133,0,0.244,0.043,0.33,0.13c0.087,0.087,0.131,0.197,0.131,0.33v21.16
							c0,0.133-0.044,0.243-0.131,0.33c-0.086,0.086-0.197,0.13-0.33,0.13h-0.74C781.607,301.289,781.501,301.245,781.421,301.159z"
							/>
						<path class="st4" d="M792.711,296.679c-0.781-0.433-1.374-1.017-1.781-1.75c-0.406-0.733-0.609-1.533-0.609-2.399
							c0-1.146,0.46-2.373,1.38-3.681l3.82-5.319c0.013-0.014,0.05-0.061,0.11-0.141c0.06-0.08,0.137-0.143,0.229-0.189
							s0.2-0.07,0.319-0.07h0.98c0.12,0,0.217,0.043,0.29,0.13s0.11,0.19,0.11,0.311c0,0.066-0.033,0.153-0.1,0.26l-2.92,4.08
							c0.346-0.08,0.732-0.12,1.159-0.12c0.974,0,1.83,0.217,2.57,0.649c0.739,0.434,1.313,1.007,1.72,1.721
							c0.406,0.713,0.609,1.497,0.609,2.35c0,0.854-0.203,1.65-0.609,2.39c-0.406,0.74-0.996,1.33-1.77,1.771s-1.688,0.66-2.74,0.66
							C794.414,297.329,793.49,297.112,792.711,296.679z M797.08,295.309c0.493-0.239,0.887-0.597,1.18-1.069
							c0.293-0.474,0.44-1.044,0.44-1.71c0-0.653-0.149-1.217-0.45-1.69c-0.3-0.473-0.697-0.833-1.189-1.08
							c-0.494-0.246-1.027-0.37-1.6-0.37c-0.574,0-1.107,0.124-1.601,0.37c-0.493,0.247-0.887,0.607-1.181,1.08
							c-0.293,0.474-0.439,1.037-0.439,1.69c0,0.666,0.146,1.236,0.439,1.71c0.294,0.473,0.688,0.83,1.181,1.069
							c0.493,0.24,1.026,0.36,1.601,0.36C796.047,295.669,796.587,295.549,797.08,295.309z"/>
						<path class="st4" d="M804.97,296.819c-0.794-0.341-1.409-0.83-1.851-1.471c-0.439-0.64-0.659-1.387-0.659-2.239
							c0-0.787,0.196-1.477,0.59-2.07s0.923-1.05,1.59-1.37c-0.533-0.307-0.946-0.71-1.239-1.21c-0.294-0.5-0.44-1.09-0.44-1.771
							c0-1.159,0.433-2.076,1.3-2.75c0.867-0.673,2.007-1.01,3.42-1.01s2.551,0.334,3.41,1c0.859,0.667,1.29,1.587,1.29,2.76
							c0,0.667-0.147,1.25-0.44,1.75s-0.699,0.91-1.22,1.23c0.667,0.32,1.196,0.776,1.591,1.37c0.393,0.594,0.59,1.29,0.59,2.09
							c0,0.854-0.221,1.597-0.66,2.23c-0.44,0.633-1.057,1.119-1.851,1.46c-0.794,0.34-1.696,0.51-2.71,0.51
							S805.764,297.159,804.97,296.819z M810.05,295.049c0.634-0.479,0.95-1.12,0.95-1.92s-0.316-1.44-0.95-1.92
							c-0.634-0.48-1.423-0.72-2.37-0.72c-0.96,0-1.757,0.239-2.39,0.72c-0.634,0.479-0.95,1.12-0.95,1.92s0.316,1.44,0.95,1.92
							c0.633,0.48,1.43,0.72,2.39,0.72C808.627,295.769,809.416,295.529,810.05,295.049z M809.74,288.329
							c0.56-0.4,0.84-0.934,0.84-1.601c0-0.68-0.277-1.223-0.83-1.63c-0.554-0.406-1.244-0.609-2.07-0.609
							c-0.84,0-1.533,0.203-2.08,0.609c-0.547,0.407-0.82,0.95-0.82,1.63c0,0.681,0.273,1.224,0.82,1.631
							c0.547,0.406,1.24,0.609,2.08,0.609C808.493,288.942,809.18,288.729,809.74,288.329z"/>
						<path class="st4" d="M815.311,296.999c-0.088-0.087-0.131-0.196-0.131-0.33v-1.38c0-0.133,0.043-0.247,0.131-0.34
							c0.086-0.094,0.195-0.141,0.329-0.141h1.38c0.133,0,0.244,0.047,0.33,0.141c0.087,0.093,0.131,0.207,0.131,0.34v1.38
							c0,0.134-0.044,0.243-0.131,0.33c-0.086,0.087-0.197,0.13-0.33,0.13h-1.38C815.506,297.129,815.396,297.086,815.311,296.999z"
							/>
						<path class="st4" d="M822.04,296.789c-0.733-0.36-1.294-0.83-1.681-1.41s-0.593-1.203-0.619-1.87v-0.04
							c0-0.106,0.039-0.193,0.119-0.26s0.174-0.1,0.28-0.1h0.979c0.281,0,0.461,0.146,0.541,0.439c0.199,0.72,0.57,1.257,1.109,1.61
							c0.541,0.354,1.164,0.529,1.87,0.529c0.907,0,1.66-0.276,2.261-0.829c0.6-0.554,0.899-1.317,0.899-2.29
							c0-0.894-0.3-1.604-0.899-2.131c-0.601-0.526-1.354-0.79-2.261-0.79c-0.479,0-0.866,0.061-1.159,0.181
							c-0.294,0.12-0.594,0.293-0.9,0.52c-0.174,0.134-0.316,0.23-0.43,0.29c-0.113,0.061-0.237,0.09-0.371,0.09h-0.959
							c-0.121,0-0.228-0.043-0.32-0.13c-0.094-0.086-0.134-0.189-0.12-0.31l0.62-6.66c0.04-0.333,0.207-0.5,0.5-0.5h6.92
							c0.146,0,0.26,0.04,0.34,0.12s0.12,0.193,0.12,0.34v0.74c0,0.133-0.044,0.24-0.13,0.319c-0.087,0.08-0.197,0.12-0.33,0.12
							h-5.76l-0.36,4.021c0.64-0.453,1.5-0.68,2.58-0.68c0.894,0,1.706,0.177,2.44,0.529c0.732,0.354,1.316,0.87,1.75,1.55
							c0.433,0.681,0.649,1.487,0.649,2.421c0,0.986-0.217,1.836-0.649,2.55c-0.434,0.713-1.033,1.253-1.801,1.62
							c-0.767,0.366-1.643,0.55-2.63,0.55C823.64,297.329,822.773,297.148,822.04,296.789z"/>
						<path class="st4" d="M834.289,296.819c-0.793-0.341-1.409-0.83-1.85-1.471c-0.439-0.64-0.66-1.387-0.66-2.239
							c0-0.787,0.197-1.477,0.59-2.07c0.394-0.594,0.924-1.05,1.59-1.37c-0.533-0.307-0.946-0.71-1.239-1.21
							c-0.294-0.5-0.44-1.09-0.44-1.771c0-1.159,0.434-2.076,1.301-2.75c0.866-0.673,2.006-1.01,3.42-1.01
							c1.412,0,2.55,0.334,3.41,1c0.859,0.667,1.289,1.587,1.289,2.76c0,0.667-0.146,1.25-0.439,1.75s-0.7,0.91-1.221,1.23
							c0.667,0.32,1.197,0.776,1.591,1.37s0.59,1.29,0.59,2.09c0,0.854-0.22,1.597-0.66,2.23c-0.44,0.633-1.057,1.119-1.851,1.46
							c-0.793,0.34-1.696,0.51-2.709,0.51C835.986,297.329,835.083,297.159,834.289,296.819z M839.369,295.049
							c0.634-0.479,0.951-1.12,0.951-1.92s-0.317-1.44-0.951-1.92c-0.633-0.48-1.423-0.72-2.369-0.72
							c-0.961,0-1.758,0.239-2.391,0.72c-0.633,0.479-0.949,1.12-0.949,1.92s0.316,1.44,0.949,1.92c0.633,0.48,1.43,0.72,2.391,0.72
							C837.946,295.769,838.736,295.529,839.369,295.049z M839.06,288.329c0.56-0.4,0.841-0.934,0.841-1.601
							c0-0.68-0.277-1.223-0.83-1.63c-0.555-0.406-1.244-0.609-2.07-0.609c-0.84,0-1.533,0.203-2.08,0.609
							c-0.547,0.407-0.82,0.95-0.82,1.63c0,0.681,0.273,1.224,0.82,1.631c0.547,0.406,1.24,0.609,2.08,0.609
							C837.812,288.942,838.5,288.729,839.06,288.329z"/>
						<path class="st4" d="M850.579,296.119c-0.8-0.807-1.22-1.937-1.26-3.391l-0.021-0.8l0.021-0.8
							c0.04-1.453,0.46-2.583,1.26-3.39s1.913-1.21,3.341-1.21c0.959,0,1.77,0.17,2.43,0.51s1.152,0.764,1.479,1.27
							c0.327,0.507,0.503,1.014,0.53,1.521c0.014,0.12-0.03,0.227-0.13,0.319c-0.101,0.094-0.21,0.141-0.33,0.141h-0.88
							c-0.134,0-0.234-0.03-0.301-0.09c-0.066-0.061-0.133-0.17-0.199-0.33c-0.24-0.653-0.57-1.117-0.99-1.391
							c-0.42-0.272-0.95-0.409-1.59-0.409c-0.84,0-1.507,0.26-2,0.779c-0.494,0.521-0.76,1.313-0.801,2.38l-0.02,0.7l0.02,0.7
							c0.041,1.066,0.307,1.86,0.801,2.38c0.493,0.521,1.16,0.78,2,0.78c0.652,0,1.187-0.137,1.6-0.41
							c0.414-0.273,0.74-0.736,0.98-1.39c0.066-0.16,0.133-0.271,0.199-0.33c0.066-0.061,0.167-0.09,0.301-0.09h0.88
							c0.12,0,0.229,0.047,0.33,0.14c0.1,0.094,0.144,0.2,0.13,0.32c-0.027,0.493-0.203,0.993-0.53,1.5s-0.819,0.933-1.479,1.279
							s-1.471,0.521-2.43,0.521C852.492,297.329,851.379,296.926,850.579,296.119z"/>
						<path class="st4" d="M860.889,296.999c-0.087-0.087-0.13-0.196-0.13-0.33v-9.48c0-0.133,0.043-0.243,0.13-0.329
							c0.087-0.087,0.197-0.131,0.33-0.131h0.84c0.133,0,0.24,0.044,0.32,0.131c0.08,0.086,0.12,0.196,0.12,0.329v0.681
							c0.72-0.894,1.692-1.34,2.92-1.34c1.466,0,2.507,0.613,3.12,1.84c0.32-0.561,0.776-1.007,1.369-1.34
							c0.594-0.334,1.258-0.5,1.99-0.5c1.094,0,1.986,0.373,2.68,1.119c0.693,0.747,1.041,1.827,1.041,3.24v5.78
							c0,0.134-0.044,0.243-0.131,0.33c-0.086,0.087-0.196,0.13-0.33,0.13h-0.859c-0.133,0-0.244-0.043-0.33-0.13
							c-0.087-0.087-0.13-0.196-0.13-0.33v-5.6c0-1.067-0.22-1.83-0.66-2.29s-1.021-0.69-1.739-0.69c-0.641,0-1.19,0.237-1.65,0.71
							c-0.461,0.474-0.69,1.23-0.69,2.271v5.6c0,0.134-0.044,0.243-0.13,0.33c-0.087,0.087-0.197,0.13-0.33,0.13h-0.88
							c-0.134,0-0.243-0.043-0.33-0.13s-0.13-0.196-0.13-0.33v-5.6c0-1.054-0.23-1.813-0.689-2.28c-0.461-0.467-1.031-0.7-1.711-0.7
							c-0.64,0-1.189,0.233-1.649,0.7s-0.69,1.22-0.69,2.26v5.62c0,0.134-0.043,0.243-0.13,0.33s-0.196,0.13-0.33,0.13h-0.88
							C861.086,297.129,860.976,297.086,860.889,296.999z"/>
						<path class="st4" d="M748.371,320.938c-0.674-0.646-1.156-1.65-1.449-3.01c-0.294-1.36-0.44-3.153-0.44-5.38
							s0.146-4.017,0.44-5.37c0.293-1.354,0.775-2.354,1.449-3s1.584-0.97,2.73-0.97c0.133,0,0.242,0.043,0.33,0.13
							c0.086,0.087,0.13,0.196,0.13,0.33v0.659c0,0.12-0.04,0.224-0.12,0.311s-0.174,0.13-0.28,0.13
							c-0.76,0.014-1.354,0.27-1.78,0.77c-0.426,0.5-0.732,1.308-0.92,2.421c-0.187,1.113-0.279,2.643-0.279,4.59
							c0,1.96,0.093,3.496,0.279,4.609c0.188,1.113,0.494,1.92,0.92,2.42c0.427,0.5,1.021,0.757,1.78,0.771
							c0.106,0,0.2,0.043,0.28,0.13s0.12,0.19,0.12,0.31v0.66c0,0.134-0.044,0.243-0.13,0.33c-0.088,0.087-0.197,0.13-0.33,0.13
							C749.955,321.908,749.045,321.585,748.371,320.938z"/>
						<path class="st4" d="M754.131,317.479c-0.926-0.967-1.423-2.29-1.489-3.97c-0.014-0.36-0.021-0.947-0.021-1.761
							c0-0.826,0.007-1.426,0.021-1.8c0.066-1.68,0.563-3.003,1.489-3.97c0.928-0.967,2.277-1.45,4.051-1.45
							c1.187,0,2.193,0.21,3.02,0.63s1.45,0.971,1.87,1.65s0.649,1.407,0.69,2.18c0,0.12-0.044,0.217-0.131,0.29
							c-0.086,0.073-0.189,0.11-0.31,0.11h-1c-0.134,0-0.239-0.033-0.319-0.101c-0.08-0.066-0.141-0.18-0.181-0.34
							c-0.227-1.026-0.637-1.746-1.229-2.16c-0.594-0.413-1.397-0.619-2.41-0.619c-2.32,0-3.527,1.293-3.62,3.88
							c-0.014,0.359-0.021,0.913-0.021,1.66c0,0.746,0.007,1.312,0.021,1.699c0.093,2.574,1.3,3.86,3.62,3.86
							c1,0,1.8-0.207,2.4-0.62c0.6-0.413,1.013-1.127,1.239-2.14c0.04-0.16,0.101-0.273,0.181-0.34
							c0.08-0.067,0.186-0.101,0.319-0.101h1c0.12,0,0.224,0.037,0.31,0.11c0.087,0.073,0.131,0.17,0.131,0.29
							c-0.041,0.773-0.271,1.5-0.69,2.18s-1.044,1.23-1.87,1.65s-1.833,0.63-3.02,0.63
							C756.408,318.929,755.059,318.445,754.131,317.479z"/>
						<path class="st4" d="M766.191,306.238c-0.087-0.086-0.131-0.196-0.131-0.33v-1.04c0-0.133,0.044-0.246,0.131-0.34
							c0.086-0.093,0.196-0.14,0.33-0.14h1.18c0.133,0,0.246,0.047,0.34,0.14c0.094,0.094,0.141,0.207,0.141,0.34v1.04
							c0,0.134-0.047,0.244-0.141,0.33c-0.094,0.087-0.207,0.13-0.34,0.13h-1.18C766.388,306.368,766.277,306.325,766.191,306.238z
							 M766.352,318.599c-0.088-0.087-0.131-0.196-0.131-0.33v-9.48c0-0.133,0.043-0.243,0.131-0.329
							c0.086-0.087,0.196-0.131,0.33-0.131h0.879c0.134,0,0.244,0.044,0.33,0.131c0.087,0.086,0.131,0.196,0.131,0.329v9.48
							c0,0.134-0.044,0.243-0.131,0.33c-0.086,0.087-0.196,0.13-0.33,0.13h-0.879C766.548,318.729,766.438,318.686,766.352,318.599z
							"/>
						<path class="st4" d="M771.15,318.599c-0.086-0.087-0.129-0.196-0.129-0.33v-9.46c0-0.133,0.043-0.247,0.129-0.34
							c0.088-0.094,0.197-0.141,0.33-0.141h0.84c0.147,0,0.264,0.044,0.351,0.131c0.087,0.086,0.13,0.203,0.13,0.35v0.88
							c0.547-0.906,1.473-1.36,2.78-1.36h0.78c0.146,0,0.26,0.04,0.34,0.12s0.119,0.193,0.119,0.34v0.74
							c0,0.134-0.039,0.243-0.119,0.33s-0.193,0.13-0.34,0.13h-1.141c-0.732,0-1.31,0.214-1.729,0.641
							c-0.421,0.427-0.63,1.007-0.63,1.739v5.9c0,0.134-0.047,0.243-0.141,0.33s-0.207,0.13-0.34,0.13h-0.9
							C771.348,318.729,771.238,318.686,771.15,318.599z"/>
						<path class="st4" d="M779.16,317.719c-0.799-0.807-1.219-1.937-1.26-3.391l-0.02-0.8l0.02-0.8
							c0.041-1.453,0.461-2.583,1.26-3.39c0.801-0.807,1.914-1.21,3.341-1.21c0.96,0,1.771,0.17,2.43,0.51
							c0.66,0.34,1.153,0.764,1.479,1.27c0.327,0.507,0.504,1.014,0.531,1.521c0.013,0.12-0.031,0.227-0.131,0.319
							c-0.1,0.094-0.21,0.141-0.33,0.141h-0.88c-0.134,0-0.233-0.03-0.3-0.09c-0.066-0.061-0.133-0.17-0.2-0.33
							c-0.239-0.653-0.569-1.117-0.989-1.391c-0.42-0.272-0.951-0.409-1.59-0.409c-0.841,0-1.508,0.26-2,0.779
							c-0.494,0.521-0.761,1.313-0.801,2.38l-0.02,0.7l0.02,0.7c0.04,1.066,0.307,1.86,0.801,2.38c0.492,0.521,1.159,0.78,2,0.78
							c0.652,0,1.186-0.137,1.6-0.41c0.413-0.273,0.74-0.736,0.979-1.39c0.067-0.16,0.134-0.271,0.2-0.33
							c0.066-0.061,0.166-0.09,0.3-0.09h0.88c0.12,0,0.23,0.047,0.33,0.14c0.1,0.094,0.144,0.2,0.131,0.32
							c-0.027,0.493-0.204,0.993-0.531,1.5c-0.326,0.507-0.819,0.933-1.479,1.279c-0.659,0.347-1.47,0.521-2.43,0.521
							C781.074,318.929,779.961,318.525,779.16,317.719z"/>
						<path class="st4" d="M790.281,317.698c-0.693-0.819-1.041-1.91-1.041-3.27v-5.641c0-0.133,0.044-0.243,0.131-0.329
							c0.086-0.087,0.196-0.131,0.33-0.131h0.92c0.133,0,0.242,0.044,0.33,0.131c0.086,0.086,0.13,0.196,0.13,0.329v5.54
							c0,2.027,0.88,3.04,2.64,3.04c0.854,0,1.53-0.27,2.03-0.81s0.75-1.283,0.75-2.23v-5.54c0-0.133,0.043-0.243,0.13-0.329
							c0.086-0.087,0.196-0.131,0.33-0.131h0.92c0.133,0,0.243,0.044,0.33,0.131c0.086,0.086,0.13,0.196,0.13,0.329v9.48
							c0,0.134-0.044,0.243-0.13,0.33c-0.087,0.087-0.197,0.13-0.33,0.13h-0.859c-0.135,0-0.244-0.043-0.33-0.13
							c-0.088-0.087-0.131-0.196-0.131-0.33v-0.9c-0.387,0.521-0.84,0.91-1.359,1.17c-0.521,0.261-1.18,0.391-1.98,0.391
							C791.954,318.929,790.975,318.519,790.281,317.698z"/>
						<path class="st4" d="M801.471,318.599c-0.087-0.087-0.13-0.196-0.13-0.33v-9.48c0-0.133,0.043-0.243,0.13-0.329
							c0.087-0.087,0.197-0.131,0.33-0.131h0.84c0.133,0,0.24,0.044,0.32,0.131c0.08,0.086,0.12,0.196,0.12,0.329v0.681
							c0.72-0.894,1.692-1.34,2.92-1.34c1.466,0,2.507,0.613,3.12,1.84c0.32-0.561,0.776-1.007,1.369-1.34
							c0.594-0.334,1.258-0.5,1.99-0.5c1.094,0,1.986,0.373,2.68,1.119c0.693,0.747,1.041,1.827,1.041,3.24v5.78
							c0,0.134-0.044,0.243-0.131,0.33c-0.086,0.087-0.196,0.13-0.33,0.13h-0.859c-0.133,0-0.244-0.043-0.33-0.13
							c-0.087-0.087-0.13-0.196-0.13-0.33v-5.6c0-1.067-0.22-1.83-0.66-2.29s-1.021-0.69-1.739-0.69c-0.641,0-1.19,0.237-1.65,0.71
							c-0.461,0.474-0.69,1.23-0.69,2.271v5.6c0,0.134-0.044,0.243-0.13,0.33c-0.087,0.087-0.197,0.13-0.33,0.13h-0.88
							c-0.134,0-0.243-0.043-0.33-0.13s-0.13-0.196-0.13-0.33v-5.6c0-1.054-0.23-1.813-0.689-2.28c-0.461-0.467-1.031-0.7-1.711-0.7
							c-0.64,0-1.189,0.233-1.649,0.7s-0.69,1.22-0.69,2.26v5.62c0,0.134-0.043,0.243-0.13,0.33s-0.196,0.13-0.33,0.13h-0.88
							C801.668,318.729,801.558,318.686,801.471,318.599z"/>
						<path class="st4" d="M820.11,318.599c-0.087-0.087-0.13-0.196-0.13-0.33v-8.4h-1.721c-0.133,0-0.242-0.04-0.329-0.12
							c-0.087-0.079-0.13-0.187-0.13-0.319v-0.641c0-0.133,0.043-0.243,0.13-0.329c0.087-0.087,0.196-0.131,0.329-0.131h1.721v-1
							c0-1.08,0.264-1.916,0.79-2.51c0.526-0.593,1.39-0.89,2.59-0.89h1.181c0.133,0,0.242,0.043,0.33,0.13
							c0.086,0.087,0.129,0.197,0.129,0.33v0.64c0,0.134-0.043,0.24-0.129,0.32c-0.088,0.08-0.197,0.12-0.33,0.12H823.4
							c-0.613,0-1.04,0.16-1.279,0.479c-0.24,0.32-0.361,0.813-0.361,1.48v0.899h2.58c0.134,0,0.244,0.044,0.33,0.131
							c0.087,0.086,0.131,0.196,0.131,0.329v0.641c0,0.133-0.044,0.24-0.131,0.319c-0.086,0.08-0.196,0.12-0.33,0.12h-2.58v8.4
							c0,0.134-0.043,0.243-0.129,0.33c-0.088,0.087-0.197,0.13-0.33,0.13h-0.86C820.307,318.729,820.197,318.686,820.11,318.599z"
							/>
						<path class="st4" d="M827.24,317.658c-0.813-0.847-1.26-2.003-1.34-3.47l-0.02-0.68l0.02-0.66
							c0.08-1.44,0.526-2.587,1.34-3.44c0.813-0.853,1.9-1.279,3.26-1.279c1.467,0,2.604,0.467,3.41,1.399
							c0.807,0.934,1.211,2.2,1.211,3.8v0.36c0,0.134-0.044,0.243-0.131,0.33s-0.197,0.13-0.33,0.13h-6.939v0.18
							c0.039,0.867,0.307,1.607,0.8,2.221s1.146,0.92,1.96,0.92c0.627,0,1.137-0.123,1.529-0.37c0.394-0.247,0.69-0.503,0.891-0.771
							c0.12-0.159,0.213-0.256,0.279-0.29c0.067-0.032,0.181-0.05,0.341-0.05h0.88c0.12,0,0.223,0.033,0.311,0.101
							c0.086,0.066,0.129,0.153,0.129,0.26c0,0.293-0.18,0.646-0.539,1.06c-0.36,0.414-0.871,0.771-1.53,1.07
							c-0.66,0.3-1.417,0.45-2.271,0.45C829.141,318.929,828.054,318.506,827.24,317.658z M833.301,312.788v-0.06
							c0-0.934-0.254-1.693-0.76-2.28c-0.508-0.586-1.188-0.88-2.041-0.88c-0.867,0-1.547,0.294-2.039,0.88
							c-0.494,0.587-0.74,1.347-0.74,2.28v0.06H833.301z"/>
						<path class="st4" d="M837.689,318.599c-0.086-0.087-0.129-0.196-0.129-0.33v-9.46c0-0.133,0.043-0.247,0.129-0.34
							c0.088-0.094,0.197-0.141,0.33-0.141h0.84c0.147,0,0.264,0.044,0.351,0.131c0.087,0.086,0.13,0.203,0.13,0.35v0.88
							c0.547-0.906,1.473-1.36,2.78-1.36h0.78c0.146,0,0.26,0.04,0.34,0.12s0.119,0.193,0.119,0.34v0.74
							c0,0.134-0.039,0.243-0.119,0.33s-0.193,0.13-0.34,0.13h-1.141c-0.732,0-1.31,0.214-1.729,0.641
							c-0.421,0.427-0.63,1.007-0.63,1.739v5.9c0,0.134-0.047,0.243-0.141,0.33s-0.207,0.13-0.34,0.13h-0.9
							C837.887,318.729,837.777,318.686,837.689,318.599z"/>
						<path class="st4" d="M845.74,317.658c-0.814-0.847-1.26-2.003-1.34-3.47l-0.021-0.68l0.021-0.66
							c0.08-1.44,0.525-2.587,1.34-3.44c0.812-0.853,1.899-1.279,3.26-1.279c1.467,0,2.604,0.467,3.41,1.399
							c0.807,0.934,1.21,2.2,1.21,3.8v0.36c0,0.134-0.044,0.243-0.13,0.33c-0.088,0.087-0.197,0.13-0.33,0.13h-6.94v0.18
							c0.04,0.867,0.307,1.607,0.8,2.221c0.494,0.613,1.146,0.92,1.961,0.92c0.626,0,1.136-0.123,1.529-0.37
							c0.393-0.247,0.689-0.503,0.891-0.771c0.119-0.159,0.213-0.256,0.279-0.29c0.066-0.032,0.18-0.05,0.34-0.05h0.881
							c0.119,0,0.223,0.033,0.31,0.101c0.087,0.066,0.13,0.153,0.13,0.26c0,0.293-0.18,0.646-0.54,1.06
							c-0.36,0.414-0.87,0.771-1.53,1.07s-1.416,0.45-2.27,0.45C847.64,318.929,846.553,318.506,845.74,317.658z M851.8,312.788
							v-0.06c0-0.934-0.253-1.693-0.76-2.28c-0.507-0.586-1.187-0.88-2.04-0.88c-0.867,0-1.547,0.294-2.04,0.88
							c-0.493,0.587-0.74,1.347-0.74,2.28v0.06H851.8z"/>
						<path class="st4" d="M856.189,318.599c-0.086-0.087-0.129-0.196-0.129-0.33v-9.48c0-0.133,0.043-0.243,0.129-0.329
							c0.088-0.087,0.197-0.131,0.33-0.131h0.86c0.147,0,0.261,0.04,0.341,0.12s0.119,0.193,0.119,0.34v0.881
							c0.4-0.493,0.863-0.874,1.391-1.141c0.526-0.267,1.183-0.399,1.97-0.399c1.28,0,2.272,0.409,2.979,1.229
							s1.061,1.903,1.061,3.25v5.66c0,0.134-0.043,0.243-0.131,0.33c-0.086,0.087-0.196,0.13-0.329,0.13h-0.921
							c-0.133,0-0.242-0.043-0.329-0.13s-0.13-0.196-0.13-0.33v-5.54c0-0.96-0.234-1.707-0.7-2.24c-0.467-0.533-1.134-0.8-2-0.8
							c-0.854,0-1.534,0.271-2.04,0.81c-0.507,0.54-0.76,1.284-0.76,2.23v5.54c0,0.134-0.044,0.243-0.131,0.33
							c-0.086,0.087-0.196,0.13-0.33,0.13h-0.92C856.387,318.729,856.277,318.686,856.189,318.599z"/>
						<path class="st4" d="M868.959,317.719c-0.799-0.807-1.219-1.937-1.26-3.391l-0.02-0.8l0.02-0.8
							c0.041-1.453,0.461-2.583,1.26-3.39c0.801-0.807,1.914-1.21,3.341-1.21c0.96,0,1.771,0.17,2.43,0.51
							c0.66,0.34,1.153,0.764,1.479,1.27c0.327,0.507,0.504,1.014,0.531,1.521c0.013,0.12-0.031,0.227-0.131,0.319
							c-0.1,0.094-0.21,0.141-0.33,0.141h-0.88c-0.134,0-0.233-0.03-0.3-0.09c-0.066-0.061-0.133-0.17-0.2-0.33
							c-0.239-0.653-0.569-1.117-0.989-1.391c-0.42-0.272-0.951-0.409-1.59-0.409c-0.841,0-1.508,0.26-2,0.779
							c-0.494,0.521-0.761,1.313-0.801,2.38l-0.02,0.7l0.02,0.7c0.04,1.066,0.307,1.86,0.801,2.38c0.492,0.521,1.159,0.78,2,0.78
							c0.652,0,1.186-0.137,1.6-0.41c0.413-0.273,0.74-0.736,0.979-1.39c0.067-0.16,0.134-0.271,0.2-0.33
							c0.066-0.061,0.166-0.09,0.3-0.09h0.88c0.12,0,0.23,0.047,0.33,0.14c0.1,0.094,0.144,0.2,0.131,0.32
							c-0.027,0.493-0.204,0.993-0.531,1.5c-0.326,0.507-0.819,0.933-1.479,1.279c-0.659,0.347-1.47,0.521-2.43,0.521
							C870.873,318.929,869.76,318.525,868.959,317.719z"/>
						<path class="st4" d="M880,317.658c-0.814-0.847-1.26-2.003-1.34-3.47l-0.021-0.68l0.021-0.66c0.08-1.44,0.525-2.587,1.34-3.44
							c0.812-0.853,1.899-1.279,3.26-1.279c1.467,0,2.604,0.467,3.41,1.399c0.807,0.934,1.21,2.2,1.21,3.8v0.36
							c0,0.134-0.044,0.243-0.13,0.33c-0.088,0.087-0.197,0.13-0.33,0.13h-6.94v0.18c0.04,0.867,0.307,1.607,0.8,2.221
							c0.494,0.613,1.146,0.92,1.961,0.92c0.626,0,1.136-0.123,1.529-0.37c0.393-0.247,0.689-0.503,0.891-0.771
							c0.119-0.159,0.213-0.256,0.279-0.29c0.066-0.032,0.18-0.05,0.34-0.05h0.881c0.119,0,0.223,0.033,0.31,0.101
							c0.087,0.066,0.13,0.153,0.13,0.26c0,0.293-0.18,0.646-0.54,1.06c-0.36,0.414-0.87,0.771-1.53,1.07s-1.416,0.45-2.27,0.45
							C881.899,318.929,880.812,318.506,880,317.658z M886.06,312.788v-0.06c0-0.934-0.253-1.693-0.76-2.28
							c-0.507-0.586-1.187-0.88-2.04-0.88c-0.867,0-1.547,0.294-2.04,0.88c-0.493,0.587-0.74,1.347-0.74,2.28v0.06H886.06z"/>
						<path class="st4" d="M888.589,321.778c-0.087-0.087-0.13-0.196-0.13-0.33v-0.66c0-0.119,0.04-0.223,0.12-0.31
							s0.173-0.13,0.28-0.13c0.746-0.014,1.336-0.271,1.77-0.771s0.743-1.31,0.93-2.43c0.188-1.12,0.28-2.653,0.28-4.6
							c0-1.947-0.093-3.477-0.28-4.59c-0.187-1.113-0.496-1.921-0.93-2.421s-1.023-0.756-1.77-0.77c-0.107,0-0.2-0.043-0.28-0.13
							s-0.12-0.19-0.12-0.311v-0.659c0-0.134,0.043-0.243,0.13-0.33s0.19-0.13,0.31-0.13c1.146,0,2.057,0.323,2.73,0.97
							s1.156,1.646,1.45,3c0.293,1.354,0.44,3.144,0.44,5.37s-0.147,4.02-0.44,5.38c-0.294,1.359-0.776,2.363-1.45,3.01
							s-1.584,0.97-2.73,0.97C888.779,321.908,888.676,321.865,888.589,321.778z"/>
					</g>
				</g>
			</g>
			<g>
				<g id="MTEXT_18_">
					<g>
						<path class="st4" d="M599.835,566.675c-0.714-0.306-1.269-0.747-1.665-1.322c-0.396-0.576-0.594-1.248-0.594-2.017
							c0-0.708,0.177-1.329,0.531-1.863c0.354-0.533,0.83-0.944,1.431-1.232c-0.48-0.276-0.853-0.639-1.116-1.089
							s-0.396-0.981-0.396-1.594c0-1.044,0.391-1.868,1.17-2.475c0.78-0.605,1.807-0.909,3.078-0.909c1.272,0,2.295,0.301,3.069,0.9
							s1.161,1.428,1.161,2.483c0,0.601-0.133,1.125-0.396,1.575s-0.629,0.819-1.098,1.107c0.6,0.288,1.077,0.699,1.432,1.232
							c0.354,0.534,0.53,1.161,0.53,1.882c0,0.768-0.198,1.437-0.594,2.007s-0.951,1.008-1.665,1.313
							c-0.715,0.307-1.527,0.459-2.439,0.459S600.549,566.981,599.835,566.675z M604.406,565.082
							c0.57-0.432,0.855-1.008,0.855-1.728c0-0.721-0.285-1.297-0.855-1.729c-0.569-0.432-1.28-0.647-2.133-0.647
							c-0.863,0-1.58,0.216-2.15,0.647s-0.855,1.008-0.855,1.729c0,0.72,0.285,1.296,0.855,1.728s1.287,0.648,2.15,0.648
							C603.126,565.73,603.837,565.514,604.406,565.082z M604.128,559.034c0.504-0.36,0.756-0.84,0.756-1.44
							c0-0.611-0.249-1.101-0.747-1.467s-1.119-0.549-1.863-0.549c-0.756,0-1.38,0.183-1.871,0.549
							c-0.492,0.366-0.738,0.855-0.738,1.467c0,0.612,0.246,1.102,0.738,1.468c0.491,0.366,1.115,0.549,1.871,0.549
							C603.006,559.586,603.624,559.395,604.128,559.034z"/>
						<path class="st4" d="M609.141,566.837c-0.078-0.078-0.117-0.177-0.117-0.297v-1.242c0-0.119,0.039-0.222,0.117-0.306
							s0.178-0.126,0.297-0.126h1.242c0.12,0,0.219,0.042,0.297,0.126s0.117,0.187,0.117,0.306v1.242
							c0,0.12-0.039,0.219-0.117,0.297s-0.177,0.117-0.297,0.117h-1.242C609.318,566.954,609.219,566.915,609.141,566.837z"/>
						<path class="st4" d="M615.197,566.648c-0.66-0.324-1.164-0.747-1.512-1.27c-0.348-0.521-0.533-1.083-0.558-1.683v-0.036
							c0-0.096,0.036-0.174,0.108-0.234c0.071-0.06,0.155-0.09,0.252-0.09h0.881c0.252,0,0.414,0.133,0.486,0.396
							c0.18,0.647,0.514,1.131,1,1.448c0.485,0.318,1.047,0.478,1.682,0.478c0.816,0,1.494-0.249,2.035-0.747
							c0.539-0.498,0.81-1.185,0.81-2.061c0-0.805-0.271-1.443-0.81-1.918c-0.541-0.474-1.219-0.711-2.035-0.711
							c-0.432,0-0.779,0.055-1.043,0.162c-0.265,0.108-0.535,0.265-0.811,0.469c-0.156,0.12-0.285,0.207-0.387,0.261
							s-0.213,0.081-0.333,0.081H614.1c-0.107,0-0.204-0.039-0.287-0.117c-0.085-0.078-0.121-0.171-0.109-0.279l0.559-5.994
							c0.036-0.3,0.186-0.449,0.45-0.449h6.228c0.133,0,0.234,0.035,0.307,0.107s0.107,0.174,0.107,0.307v0.666
							c0,0.119-0.039,0.216-0.117,0.287c-0.078,0.072-0.177,0.108-0.297,0.108h-5.184l-0.324,3.618
							c0.576-0.408,1.35-0.612,2.322-0.612c0.804,0,1.535,0.159,2.195,0.478c0.66,0.317,1.186,0.782,1.576,1.395
							c0.389,0.612,0.584,1.338,0.584,2.178c0,0.889-0.195,1.653-0.584,2.295c-0.391,0.643-0.931,1.129-1.621,1.458
							c-0.689,0.33-1.479,0.495-2.367,0.495C616.638,567.134,615.857,566.972,615.197,566.648z"/>
						<path class="st4" d="M626.187,566.837c-0.065-0.078-0.099-0.171-0.099-0.279c0-0.083,0.023-0.161,0.072-0.233l2.771-3.853
							c-0.288,0.072-0.624,0.108-1.008,0.108c-0.864-0.012-1.62-0.213-2.268-0.603c-0.648-0.391-1.144-0.9-1.486-1.53
							c-0.342-0.63-0.512-1.305-0.512-2.025c0-0.72,0.17-1.403,0.512-2.052c0.343-0.648,0.853-1.176,1.531-1.584
							c0.678-0.408,1.496-0.612,2.457-0.612c0.959,0,1.781,0.198,2.465,0.595c0.685,0.396,1.2,0.915,1.549,1.557
							c0.348,0.642,0.521,1.329,0.521,2.061c0,0.66-0.117,1.242-0.351,1.746c-0.234,0.504-0.544,1.026-0.927,1.566l-3.492,4.896
							c-0.084,0.108-0.166,0.195-0.243,0.262c-0.078,0.065-0.188,0.099-0.333,0.099h-0.9
							C626.34,566.954,626.252,566.915,626.187,566.837z M629.58,560.816c0.432-0.229,0.773-0.549,1.025-0.963
							s0.378-0.892,0.378-1.432c0-0.552-0.126-1.037-0.378-1.458c-0.252-0.42-0.594-0.744-1.025-0.972
							c-0.433-0.228-0.906-0.342-1.422-0.342c-0.504,0-0.97,0.114-1.396,0.342c-0.427,0.228-0.765,0.552-1.017,0.972
							c-0.252,0.421-0.379,0.906-0.379,1.458c0,0.54,0.127,1.018,0.379,1.432s0.588,0.734,1.008,0.963
							c0.42,0.228,0.888,0.342,1.404,0.342C628.674,561.158,629.147,561.044,629.58,560.816z"/>
						<path class="st4" d="M636.491,566.648c-0.66-0.324-1.164-0.747-1.512-1.27c-0.349-0.521-0.534-1.083-0.558-1.683v-0.036
							c0-0.096,0.035-0.174,0.107-0.234c0.072-0.06,0.156-0.09,0.252-0.09h0.882c0.252,0,0.414,0.133,0.486,0.396
							c0.18,0.647,0.513,1.131,0.999,1.448c0.486,0.318,1.047,0.478,1.683,0.478c0.815,0,1.494-0.249,2.034-0.747
							s0.811-1.185,0.811-2.061c0-0.805-0.271-1.443-0.811-1.918c-0.54-0.474-1.219-0.711-2.034-0.711
							c-0.432,0-0.78,0.055-1.044,0.162c-0.264,0.108-0.534,0.265-0.811,0.469c-0.155,0.12-0.285,0.207-0.387,0.261
							s-0.213,0.081-0.332,0.081h-0.865c-0.107,0-0.203-0.039-0.287-0.117s-0.12-0.171-0.108-0.279l0.558-5.994
							c0.037-0.3,0.187-0.449,0.451-0.449h6.228c0.132,0,0.233,0.035,0.306,0.107s0.108,0.174,0.108,0.307v0.666
							c0,0.119-0.039,0.216-0.117,0.287c-0.078,0.072-0.177,0.108-0.297,0.108h-5.185l-0.324,3.618
							c0.576-0.408,1.351-0.612,2.322-0.612c0.805,0,1.536,0.159,2.196,0.478c0.659,0.317,1.185,0.782,1.575,1.395
							c0.39,0.612,0.585,1.338,0.585,2.178c0,0.889-0.195,1.653-0.585,2.295c-0.391,0.643-0.93,1.129-1.62,1.458
							c-0.69,0.33-1.479,0.495-2.367,0.495C637.932,567.134,637.15,566.972,636.491,566.648z"/>
						<path class="st4" d="M645.338,557.486c-0.053-0.072-0.068-0.162-0.045-0.271l0.396-2.52c0.048-0.348,0.216-0.522,0.504-0.522
							h1.152c0.084,0,0.152,0.03,0.207,0.09c0.054,0.061,0.08,0.133,0.08,0.217c0,0.12-0.018,0.216-0.053,0.288l-0.937,2.43
							c-0.06,0.132-0.126,0.231-0.198,0.297c-0.072,0.066-0.18,0.099-0.324,0.099h-0.558
							C645.467,557.594,645.393,557.558,645.338,557.486z M648.164,557.486c-0.054-0.072-0.068-0.162-0.045-0.271l0.396-2.52
							c0.048-0.348,0.216-0.522,0.504-0.522h1.152c0.084,0,0.152,0.03,0.207,0.09c0.054,0.061,0.08,0.133,0.08,0.217
							c0,0.12-0.018,0.216-0.054,0.288l-0.936,2.43c-0.061,0.132-0.126,0.231-0.198,0.297c-0.072,0.066-0.18,0.099-0.324,0.099
							h-0.558C648.293,557.594,648.219,557.558,648.164,557.486z"/>
						<path class="st4" d="M577.191,586.437c-0.078-0.078-0.117-0.177-0.117-0.297v-0.54c0-0.275,0.15-0.54,0.45-0.792l3.924-3.906
							c0.888-0.756,1.5-1.374,1.836-1.854s0.505-0.99,0.505-1.53c0-0.708-0.199-1.263-0.595-1.665
							c-0.396-0.401-0.972-0.603-1.728-0.603c-0.721,0-1.291,0.21-1.711,0.63s-0.678,0.984-0.773,1.691
							c-0.024,0.133-0.084,0.234-0.18,0.307c-0.097,0.072-0.192,0.107-0.289,0.107h-0.863c-0.107,0-0.198-0.035-0.27-0.107
							c-0.072-0.072-0.108-0.156-0.108-0.252c0.024-0.636,0.194-1.251,0.513-1.846c0.318-0.594,0.789-1.079,1.413-1.458
							c0.624-0.378,1.38-0.566,2.269-0.566c1.344,0,2.354,0.351,3.033,1.053c0.678,0.702,1.017,1.593,1.017,2.673
							c0,0.756-0.183,1.438-0.55,2.043c-0.365,0.606-0.938,1.245-1.719,1.917l-3.546,3.601h5.671c0.131,0,0.233,0.036,0.305,0.107
							c0.072,0.072,0.109,0.175,0.109,0.307v0.684c0,0.12-0.04,0.219-0.117,0.297c-0.078,0.078-0.178,0.117-0.297,0.117h-7.885
							C577.368,586.554,577.27,586.515,577.191,586.437z"/>
						<path class="st4" d="M591.385,586.437c-0.072-0.078-0.108-0.177-0.108-0.297v-10.152l-3.024,2.322
							c-0.084,0.072-0.174,0.108-0.27,0.108c-0.107,0-0.21-0.061-0.306-0.181l-0.433-0.558c-0.06-0.084-0.09-0.168-0.09-0.252
							c0-0.132,0.061-0.24,0.18-0.324l3.906-3.023c0.133-0.084,0.289-0.126,0.469-0.126h0.846c0.119,0,0.219,0.039,0.297,0.116
							c0.078,0.078,0.117,0.178,0.117,0.298v11.771c0,0.12-0.039,0.219-0.117,0.297s-0.178,0.117-0.297,0.117h-0.883
							C591.553,586.554,591.457,586.515,591.385,586.437z"/>
						<path class="st4" d="M595.695,586.437c-0.078-0.078-0.117-0.177-0.117-0.297v-1.242c0-0.119,0.039-0.222,0.117-0.306
							s0.177-0.126,0.297-0.126h1.242c0.119,0,0.219,0.042,0.297,0.126s0.117,0.187,0.117,0.306v1.242
							c0,0.12-0.039,0.219-0.117,0.297s-0.178,0.117-0.297,0.117h-1.242C595.872,586.554,595.773,586.515,595.695,586.437z"/>
						<path class="st4" d="M601.941,586.274c-0.715-0.306-1.27-0.747-1.665-1.322c-0.396-0.576-0.595-1.248-0.595-2.017
							c0-0.708,0.178-1.329,0.531-1.863c0.354-0.533,0.831-0.944,1.432-1.232c-0.48-0.276-0.853-0.639-1.116-1.089
							c-0.265-0.45-0.396-0.981-0.396-1.594c0-1.044,0.389-1.868,1.17-2.475c0.779-0.605,1.806-0.909,3.078-0.909
							c1.271,0,2.295,0.301,3.068,0.9s1.161,1.428,1.161,2.483c0,0.601-0.132,1.125-0.396,1.575
							c-0.265,0.45-0.631,0.819-1.099,1.107c0.601,0.288,1.077,0.699,1.431,1.232c0.354,0.534,0.531,1.161,0.531,1.882
							c0,0.768-0.197,1.437-0.594,2.007s-0.951,1.008-1.665,1.313c-0.714,0.307-1.527,0.459-2.438,0.459
							C603.469,586.733,602.655,586.581,601.941,586.274z M606.514,584.682c0.569-0.432,0.854-1.008,0.854-1.728
							c0-0.721-0.285-1.297-0.854-1.729c-0.57-0.432-1.281-0.647-2.133-0.647c-0.865,0-1.582,0.216-2.151,0.647
							c-0.57,0.432-0.854,1.008-0.854,1.729c0,0.72,0.284,1.296,0.854,1.728c0.569,0.432,1.286,0.648,2.151,0.648
							C605.232,585.33,605.943,585.113,606.514,584.682z M606.234,578.634c0.504-0.36,0.756-0.84,0.756-1.44
							c0-0.611-0.249-1.101-0.747-1.467s-1.119-0.549-1.862-0.549c-0.756,0-1.381,0.183-1.873,0.549s-0.737,0.855-0.737,1.467
							c0,0.612,0.245,1.102,0.737,1.468s1.117,0.549,1.873,0.549C605.112,579.186,605.73,578.994,606.234,578.634z"/>
						<path class="st4" d="M612.984,586.274c-0.685-0.306-1.203-0.704-1.558-1.196s-0.543-1.002-0.567-1.53
							c0-0.108,0.037-0.195,0.108-0.261c0.072-0.066,0.162-0.1,0.271-0.1h0.81c0.132,0,0.24,0.027,0.324,0.081
							c0.083,0.054,0.149,0.159,0.198,0.315c0.155,0.611,0.494,1.044,1.017,1.296s1.137,0.378,1.845,0.378
							c0.864,0,1.551-0.207,2.062-0.621c0.51-0.414,0.765-1.005,0.765-1.773c0-1.464-0.895-2.195-2.682-2.195h-1.692
							c-0.12,0-0.219-0.039-0.297-0.117s-0.117-0.177-0.117-0.297v-0.468c0-0.181,0.065-0.336,0.198-0.469l3.51-3.888h-5.328
							c-0.119,0-0.219-0.036-0.297-0.108c-0.078-0.071-0.117-0.168-0.117-0.287v-0.648c0-0.132,0.039-0.237,0.117-0.315
							c0.078-0.077,0.178-0.116,0.297-0.116h7.129c0.131,0,0.236,0.039,0.314,0.116c0.078,0.078,0.117,0.184,0.117,0.315v0.594
							c0,0.133-0.061,0.271-0.18,0.414l-3.511,3.942h0.288c1.225,0.036,2.193,0.354,2.907,0.954c0.714,0.6,1.071,1.476,1.071,2.628
							c0,0.792-0.195,1.473-0.586,2.043c-0.39,0.57-0.933,1.008-1.629,1.313c-0.695,0.307-1.482,0.459-2.357,0.459
							C614.479,586.733,613.668,586.581,612.984,586.274z"/>
						<path class="st4" d="M627.365,585.645c-0.719-0.726-1.098-1.743-1.133-3.051l-0.019-0.72l0.019-0.721
							c0.035-1.308,0.414-2.324,1.133-3.051c0.721-0.726,1.723-1.089,3.007-1.089c0.864,0,1.593,0.153,2.187,0.459
							s1.038,0.688,1.332,1.143c0.294,0.457,0.453,0.912,0.477,1.368c0.013,0.108-0.026,0.204-0.116,0.288
							c-0.091,0.084-0.188,0.126-0.298,0.126h-0.791c-0.121,0-0.211-0.026-0.271-0.081c-0.06-0.054-0.12-0.152-0.18-0.297
							c-0.216-0.588-0.513-1.005-0.892-1.251c-0.377-0.246-0.854-0.369-1.431-0.369c-0.756,0-1.356,0.234-1.8,0.702
							c-0.444,0.468-0.684,1.183-0.721,2.143l-0.018,0.63l0.018,0.63c0.037,0.96,0.276,1.674,0.721,2.142
							c0.443,0.468,1.044,0.702,1.8,0.702c0.588,0,1.067-0.123,1.44-0.369c0.371-0.246,0.666-0.663,0.882-1.251
							c0.06-0.144,0.12-0.243,0.18-0.297s0.149-0.081,0.271-0.081h0.791c0.109,0,0.207,0.042,0.298,0.126
							c0.09,0.084,0.129,0.18,0.116,0.288c-0.023,0.444-0.183,0.895-0.477,1.35c-0.294,0.457-0.738,0.841-1.332,1.152
							s-1.322,0.468-2.187,0.468C629.088,586.733,628.086,586.371,627.365,585.645z"/>
						<path class="st4" d="M636.645,586.437c-0.078-0.078-0.117-0.177-0.117-0.297v-8.532c0-0.119,0.039-0.219,0.117-0.297
							s0.177-0.117,0.297-0.117h0.756c0.119,0,0.216,0.039,0.288,0.117c0.071,0.078,0.108,0.178,0.108,0.297v0.612
							c0.647-0.804,1.523-1.206,2.627-1.206c1.32,0,2.256,0.552,2.809,1.656c0.288-0.504,0.699-0.906,1.232-1.206
							c0.534-0.3,1.131-0.45,1.791-0.45c0.984,0,1.789,0.336,2.412,1.008c0.624,0.673,0.937,1.645,0.937,2.916v5.202
							c0,0.12-0.039,0.219-0.117,0.297s-0.177,0.117-0.297,0.117h-0.774c-0.119,0-0.219-0.039-0.297-0.117s-0.117-0.177-0.117-0.297
							v-5.04c0-0.96-0.197-1.646-0.594-2.061s-0.918-0.621-1.566-0.621c-0.575,0-1.07,0.213-1.484,0.639s-0.621,1.107-0.621,2.043
							v5.04c0,0.12-0.039,0.219-0.117,0.297s-0.177,0.117-0.297,0.117h-0.792c-0.12,0-0.22-0.039-0.297-0.117
							c-0.078-0.078-0.117-0.177-0.117-0.297v-5.04c0-0.947-0.207-1.632-0.62-2.052c-0.414-0.42-0.928-0.63-1.539-0.63
							c-0.576,0-1.072,0.21-1.486,0.63s-0.62,1.098-0.62,2.034v5.058c0,0.12-0.04,0.219-0.117,0.297
							c-0.078,0.078-0.177,0.117-0.297,0.117h-0.792C636.821,586.554,636.723,586.515,636.645,586.437z"/>
						<path class="st4" d="M566.283,608.144c-0.606-0.582-1.041-1.485-1.305-2.709c-0.265-1.225-0.396-2.838-0.396-4.842
							s0.132-3.615,0.396-4.833c0.264-1.219,0.698-2.118,1.305-2.7c0.605-0.582,1.425-0.873,2.457-0.873
							c0.119,0,0.219,0.039,0.297,0.117s0.117,0.177,0.117,0.297v0.594c0,0.108-0.036,0.201-0.108,0.279
							c-0.071,0.078-0.155,0.116-0.252,0.116c-0.685,0.013-1.218,0.243-1.603,0.693c-0.383,0.45-0.659,1.177-0.827,2.178
							c-0.169,1.003-0.252,2.38-0.252,4.132c0,1.764,0.083,3.146,0.252,4.148c0.168,1.002,0.444,1.729,0.827,2.178
							c0.385,0.45,0.918,0.682,1.603,0.693c0.097,0,0.181,0.039,0.252,0.117c0.072,0.078,0.108,0.171,0.108,0.278v0.595
							c0,0.119-0.039,0.219-0.117,0.297s-0.178,0.117-0.297,0.117C567.708,609.017,566.889,608.726,566.283,608.144z"/>
						<path class="st4" d="M571.116,606.037c-0.071-0.078-0.108-0.177-0.108-0.297v-11.754c0-0.132,0.037-0.237,0.108-0.315
							c0.072-0.077,0.168-0.116,0.288-0.116h4.068c1.812,0,3.119,0.404,3.924,1.215c0.804,0.81,1.218,2.031,1.242,3.663
							c0.012,0.348,0.018,0.815,0.018,1.403c0,0.589-0.006,1.062-0.018,1.422c-0.024,1.141-0.207,2.067-0.549,2.781
							s-0.88,1.245-1.611,1.593c-0.732,0.349-1.704,0.522-2.916,0.522h-4.158C571.284,606.154,571.188,606.115,571.116,606.037z
							 M575.473,604.66c0.84,0,1.509-0.117,2.007-0.351c0.497-0.234,0.857-0.601,1.079-1.099c0.223-0.497,0.346-1.173,0.369-2.024
							c0.024-0.721,0.037-1.17,0.037-1.351c0-0.191-0.013-0.636-0.037-1.332c-0.023-1.199-0.309-2.078-0.854-2.637
							c-0.546-0.558-1.442-0.837-2.69-0.837H572.7v9.63H575.473z"/>
						<path class="st4" d="M583.131,594.913c-0.078-0.078-0.117-0.177-0.117-0.297v-0.936c0-0.12,0.039-0.223,0.117-0.307
							s0.178-0.126,0.297-0.126h1.062c0.119,0,0.222,0.042,0.306,0.126s0.126,0.187,0.126,0.307v0.936
							c0,0.12-0.042,0.219-0.126,0.297s-0.187,0.117-0.306,0.117h-1.062C583.309,595.03,583.209,594.991,583.131,594.913z
							 M583.275,606.037c-0.078-0.078-0.117-0.177-0.117-0.297v-8.532c0-0.119,0.039-0.219,0.117-0.297s0.177-0.117,0.297-0.117
							h0.792c0.12,0,0.219,0.039,0.297,0.117c0.077,0.078,0.117,0.178,0.117,0.297v8.532c0,0.12-0.04,0.219-0.117,0.297
							c-0.078,0.078-0.177,0.117-0.297,0.117h-0.792C583.452,606.154,583.354,606.115,583.275,606.037z"/>
						<path class="st4" d="M588.441,605.975c-0.498-0.24-0.895-0.567-1.188-0.981s-0.44-0.873-0.44-1.377
							c0-0.792,0.323-1.439,0.971-1.944c0.648-0.504,1.531-0.84,2.646-1.008l2.7-0.378v-0.521c0-1.236-0.714-1.854-2.142-1.854
							c-0.553,0-0.996,0.111-1.332,0.333c-0.336,0.223-0.582,0.483-0.738,0.783c-0.049,0.12-0.1,0.201-0.152,0.243
							c-0.055,0.042-0.13,0.062-0.226,0.062h-0.702c-0.107,0-0.201-0.038-0.279-0.117c-0.078-0.077-0.117-0.171-0.117-0.278
							c0-0.276,0.129-0.597,0.388-0.963c0.258-0.366,0.657-0.685,1.196-0.954c0.541-0.271,1.2-0.405,1.98-0.405
							c1.344,0,2.307,0.312,2.889,0.937s0.873,1.403,0.873,2.34v5.85c0,0.12-0.039,0.219-0.117,0.297s-0.177,0.117-0.297,0.117
							h-0.791c-0.121,0-0.217-0.039-0.289-0.117c-0.071-0.078-0.107-0.177-0.107-0.297v-0.792c-0.264,0.396-0.648,0.727-1.152,0.99
							s-1.152,0.396-1.943,0.396C589.482,606.334,588.939,606.214,588.441,605.975z M592.374,604.246
							c0.504-0.516,0.756-1.266,0.756-2.25v-0.504l-2.106,0.306c-0.863,0.12-1.518,0.324-1.961,0.612
							c-0.445,0.288-0.666,0.648-0.666,1.08c0,0.492,0.2,0.87,0.603,1.134c0.401,0.265,0.879,0.396,1.431,0.396
							C591.223,605.021,591.87,604.763,592.374,604.246z"/>
						<path class="st4" d="M597.494,606.037c-0.078-0.078-0.116-0.177-0.116-0.297v-8.532c0-0.119,0.038-0.219,0.116-0.297
							s0.178-0.117,0.298-0.117h0.756c0.12,0,0.216,0.039,0.288,0.117s0.107,0.178,0.107,0.297v0.612
							c0.648-0.804,1.524-1.206,2.629-1.206c1.319,0,2.256,0.552,2.808,1.656c0.288-0.504,0.698-0.906,1.233-1.206
							c0.533-0.3,1.131-0.45,1.791-0.45c0.983,0,1.787,0.336,2.412,1.008c0.623,0.673,0.936,1.645,0.936,2.916v5.202
							c0,0.12-0.039,0.219-0.117,0.297s-0.178,0.117-0.297,0.117h-0.773c-0.121,0-0.22-0.039-0.298-0.117s-0.116-0.177-0.116-0.297
							v-5.04c0-0.96-0.199-1.646-0.595-2.061s-0.918-0.621-1.565-0.621c-0.576,0-1.071,0.213-1.485,0.639s-0.621,1.107-0.621,2.043
							v5.04c0,0.12-0.039,0.219-0.117,0.297s-0.177,0.117-0.297,0.117h-0.792c-0.12,0-0.219-0.039-0.297-0.117
							s-0.117-0.177-0.117-0.297v-5.04c0-0.947-0.207-1.632-0.621-2.052s-0.927-0.63-1.539-0.63c-0.576,0-1.07,0.21-1.484,0.63
							s-0.621,1.098-0.621,2.034v5.058c0,0.12-0.039,0.219-0.117,0.297s-0.178,0.117-0.297,0.117h-0.792
							C597.672,606.154,597.572,606.115,597.494,606.037z"/>
						<path class="st4" d="M614.135,605.191c-0.731-0.762-1.133-1.803-1.205-3.123l-0.019-0.612l0.019-0.594
							c0.072-1.296,0.474-2.328,1.205-3.096c0.732-0.769,1.711-1.152,2.935-1.152c1.319,0,2.343,0.42,3.069,1.26
							c0.726,0.841,1.088,1.98,1.088,3.42v0.324c0,0.12-0.039,0.219-0.116,0.297c-0.078,0.078-0.177,0.117-0.298,0.117h-6.245v0.162
							c0.036,0.78,0.276,1.446,0.72,1.998s1.032,0.828,1.764,0.828c0.564,0,1.023-0.111,1.377-0.333
							c0.354-0.222,0.621-0.453,0.801-0.693c0.109-0.144,0.192-0.23,0.253-0.261c0.06-0.03,0.161-0.045,0.306-0.045h0.792
							c0.108,0,0.201,0.03,0.279,0.09c0.077,0.061,0.116,0.138,0.116,0.234c0,0.264-0.162,0.582-0.485,0.953
							c-0.324,0.373-0.783,0.693-1.377,0.964c-0.595,0.27-1.275,0.404-2.043,0.404C615.846,606.334,614.867,605.953,614.135,605.191
							z M619.59,600.809v-0.055c0-0.84-0.229-1.523-0.685-2.052c-0.456-0.527-1.068-0.792-1.836-0.792
							c-0.78,0-1.392,0.265-1.836,0.792c-0.444,0.528-0.666,1.212-0.666,2.052v0.055H619.59z"/>
						<path class="st4" d="M624.18,603.004v-4.823h-1.422c-0.121,0-0.217-0.036-0.288-0.108c-0.072-0.072-0.108-0.168-0.108-0.288
							v-0.576c0-0.119,0.036-0.219,0.108-0.297c0.071-0.078,0.167-0.117,0.288-0.117h1.422v-3.006c0-0.119,0.035-0.219,0.107-0.297
							s0.168-0.117,0.289-0.117h0.791c0.12,0,0.219,0.039,0.297,0.117s0.117,0.178,0.117,0.297v3.006h2.232
							c0.119,0,0.219,0.039,0.297,0.117s0.117,0.178,0.117,0.297v0.576c0,0.12-0.039,0.216-0.117,0.288s-0.178,0.108-0.297,0.108
							h-2.232v4.697c0,0.612,0.1,1.074,0.297,1.387c0.198,0.312,0.537,0.468,1.018,0.468h1.098c0.12,0,0.217,0.039,0.288,0.117
							c0.072,0.078,0.108,0.177,0.108,0.297v0.594c0,0.12-0.036,0.219-0.108,0.297c-0.071,0.078-0.168,0.117-0.288,0.117h-1.224
							C625.109,606.154,624.18,605.104,624.18,603.004z"/>
						<path class="st4" d="M631.127,605.191c-0.732-0.762-1.134-1.803-1.206-3.123l-0.019-0.612l0.019-0.594
							c0.072-1.296,0.474-2.328,1.206-3.096c0.732-0.769,1.71-1.152,2.934-1.152c1.32,0,2.344,0.42,3.069,1.26
							c0.726,0.841,1.089,1.98,1.089,3.42v0.324c0,0.12-0.039,0.219-0.117,0.297s-0.177,0.117-0.297,0.117h-6.246v0.162
							c0.036,0.78,0.276,1.446,0.721,1.998c0.443,0.552,1.031,0.828,1.764,0.828c0.564,0,1.023-0.111,1.377-0.333
							s0.621-0.453,0.801-0.693c0.108-0.144,0.191-0.23,0.252-0.261s0.162-0.045,0.307-0.045h0.791c0.108,0,0.201,0.03,0.279,0.09
							c0.078,0.061,0.117,0.138,0.117,0.234c0,0.264-0.162,0.582-0.486,0.953c-0.324,0.373-0.783,0.693-1.377,0.964
							c-0.594,0.27-1.275,0.404-2.043,0.404C632.837,606.334,631.859,605.953,631.127,605.191z M636.581,600.809v-0.055
							c0-0.84-0.228-1.523-0.685-2.052c-0.455-0.527-1.068-0.792-1.836-0.792c-0.779,0-1.392,0.265-1.836,0.792
							c-0.443,0.528-0.666,1.212-0.666,2.052v0.055H636.581z"/>
						<path class="st4" d="M640.531,606.037c-0.078-0.078-0.116-0.177-0.116-0.297v-8.514c0-0.12,0.038-0.223,0.116-0.307
							c0.078-0.083,0.178-0.126,0.298-0.126h0.756c0.132,0,0.237,0.039,0.315,0.117s0.117,0.184,0.117,0.315v0.792
							c0.491-0.816,1.325-1.225,2.502-1.225h0.701c0.133,0,0.234,0.036,0.307,0.108s0.107,0.174,0.107,0.306v0.666
							c0,0.12-0.035,0.22-0.107,0.297c-0.072,0.078-0.174,0.117-0.307,0.117h-1.025c-0.66,0-1.18,0.192-1.557,0.576
							c-0.379,0.384-0.568,0.906-0.568,1.566v5.31c0,0.12-0.041,0.219-0.125,0.297s-0.187,0.117-0.307,0.117h-0.81
							C640.709,606.154,640.609,606.115,640.531,606.037z"/>
						<path class="st4" d="M645.68,608.899c-0.078-0.078-0.117-0.178-0.117-0.297v-0.595c0-0.107,0.036-0.2,0.108-0.278
							c0.071-0.078,0.155-0.117,0.252-0.117c0.672-0.012,1.202-0.243,1.593-0.693c0.391-0.449,0.669-1.179,0.838-2.187
							c0.167-1.008,0.252-2.388,0.252-4.14s-0.085-3.129-0.252-4.132c-0.169-1.001-0.447-1.728-0.838-2.178
							s-0.921-0.681-1.593-0.693c-0.097,0-0.181-0.038-0.252-0.116c-0.072-0.078-0.108-0.171-0.108-0.279v-0.594
							c0-0.12,0.039-0.219,0.117-0.297s0.171-0.117,0.279-0.117c1.031,0,1.851,0.291,2.457,0.873c0.605,0.582,1.041,1.481,1.305,2.7
							c0.264,1.218,0.396,2.829,0.396,4.833s-0.133,3.617-0.396,4.842c-0.264,1.224-0.699,2.127-1.305,2.709
							c-0.606,0.582-1.426,0.873-2.457,0.873C645.851,609.017,645.758,608.978,645.68,608.899z"/>
					</g>
				</g>
				<g>
					<g id="POLYLINE_3573_">
						<line class="st5" x1="659.673" y1="581.012" x2="682.207" y2="581.012"/>
						<line class="st5" x1="179.909" y1="581.012" x2="565" y2="581.012"/>
					</g>
					<g id="POLYLINE_3572_">
						<polyline class="st5" points="189.671,571.237 179.897,581.012 189.671,590.788 						"/>
					</g>
					<g id="POLYLINE_3571_">
						<polyline class="st5" points="673.986,590.788 683.76,581.012 673.986,571.237 						"/>
					</g>
				</g>
			</g>
		</g>
	</g>
</g>
<g id="N-TEXT">
</g>
<g id="_x32_D_x24_AG-DIAGRAM">
</g>
<g id="_x32_D_x24_AG-DETAILS">
</g>
<g id="_x32_D_x24_AG-SPORTS">
	<g id="POLYLINE_2994_">
		<path class="st41" d="M477.494,76.363c-0.127-1.9-0.98-3.685-2.134-5.175c-1.151-1.485-2.598-2.731-4.147-3.785
			c-2.03-1.378-4.278-2.451-6.578-3.298c-8.562-3.111-19.382-3.617-28.02-0.562c-2.326,0.842-4.586,1.987-6.462,3.617
			c-1.1,0.962-2.066,2.11-2.697,3.435c-1.433,2.985-0.765,6.103,1.133,8.707c1.133,1.562,2.601,2.867,4.178,3.967
			c2.087,1.45,4.411,2.568,6.792,3.445c8.808,3.21,20.26,3.678,29.037,0.173c2.217-0.906,4.357-2.117,6.07-3.81
			c0.938-0.932,1.741-2.024,2.249-3.25C477.371,78.738,477.578,77.542,477.494,76.363z"/>
	</g>
	<g id="POLYLINE_2984_">
		<path class="st41" d="M365.363,135.951c1.656-9.812-3.584-17.924-13.698-19.145c-4.58-0.537-9.241,0.428-13.462,2.21
			c-7.917,3.38-14.775,9.76-18.479,17.553c-1.796,3.821-2.84,8.095-2.434,12.329c0.466,4.955,3.024,9.296,7.416,11.741
			c3.259,1.828,7.101,2.406,10.797,2.13c6.421-0.499,12.509-3.328,17.522-7.293C359.096,150.635,364.03,143.703,365.363,135.951z"/>
	</g>
	<g id="POLYLINE_2951_">
		<path class="st41" d="M541.784,226.756c0.024-10.195-5.215-19.876-13.763-25.433c-15.621-10.16-36.533-4.082-44.275,12.867
			c-3.619,7.906-3.619,17.225,0,25.131c7.743,16.95,28.654,23.027,44.275,12.867C536.569,246.633,541.808,236.952,541.784,226.756z"
			/>
	</g>
	<g id="POLYLINE_2918_">
		<path class="st41" d="M470.58,85.976c-9.468-8.095-28.59-9.753-39.587-4.084"/>
	</g>
	<g id="POLYLINE_2895_">
		<path class="st41" d="M535.53,245.22c-2.93-11.166-12.09-19.782-23.413-22.025c-11.318-2.284-23.082,2.146-30.083,11.326"/>
	</g>
	<g id="POLYLINE_2819_">
		<path class="st41" d="M355.144,153.662c0.295-5.359-1.636-10.57-6.102-13.743c-4.245-3.033-9.795-3.576-14.821-2.666
			c-6.368,1.157-12.25,4.417-16.992,8.772"/>
	</g>
	<g id="POLYLINE_2703_">
		<path class="st41" d="M680.002,294.999c0.035-84.287-42.686-163.231-113.268-209.301
			c-61.527-40.252-138.193-51.337-208.602-30.161c-68.977,20.652-126.025,70.479-155.765,136.054
			c-29.822,65.536-29.823,141.281,0,206.817c30.369,66.959,89.152,117.409,159.944,137.268
			c69.302,19.535,144.17,8.045,204.423-31.375C637.315,458.23,680.038,379.287,680.002,294.999z"/>
	</g>
</g>
<g id="_x32_D_x24_AG-OUTLINE">
	<g id="POLYLINE_996_">
		<path class="st42" d="M680.002,294.999c0.035-84.287-42.686-163.231-113.268-209.301
			c-61.527-40.252-138.193-51.337-208.602-30.161c-68.977,20.652-126.025,70.479-155.765,136.054
			c-29.822,65.536-29.823,141.281,0,206.817c30.369,66.959,89.152,117.409,159.944,137.268
			c69.302,19.535,144.17,8.045,204.423-31.375C637.315,458.23,680.038,379.287,680.002,294.999z"/>
	</g>
</g>
</svg>
